<?xml version="1.0" standalone="no"?>
<!DOCTYPE svg PUBLIC "-//W3C//DTD SVG 20010904//EN"
 "http://www.w3.org/TR/2001/REC-SVG-20010904/DTD/svg10.dtd">
<svg version="1.0" xmlns="http://www.w3.org/2000/svg"
 width="1582.000000pt" height="1582.000000pt" viewBox="0 0 1582.000000 1582.000000"
 preserveAspectRatio="xMidYMid meet">
<metadata>
Created by potrace 1.14, written by Peter Selinger 2001-2017
</metadata>
<g transform="translate(0.000000,1582.000000) scale(0.100000,-0.100000)"
fill="#000000" stroke="none">
<path d="M7686 15113 c-1 -1 -50 -4 -109 -5 -59 -2 -107 -5 -107 -8 0 -3 -41
-5 -90 -5 -49 0 -90 -3 -90 -6 0 -3 -15 -5 -32 -5 -32 0 -158 -12 -208 -19
-74 -11 -129 -18 -157 -18 -18 -1 -33 -4 -33 -7 0 -3 -12 -6 -27 -7 -67 -5
-111 -10 -119 -15 -5 -3 -36 -9 -69 -14 -62 -8 -73 -10 -77 -14 -2 -1 -14 -3
-28 -4 -14 -2 -50 -9 -80 -15 -30 -7 -68 -15 -85 -18 -45 -8 -60 -11 -60 -14
0 -1 -9 -3 -20 -5 -11 -1 -47 -10 -80 -19 -33 -8 -72 -17 -88 -20 -15 -2 -32
-7 -37 -10 -6 -4 -23 -9 -38 -11 -15 -3 -51 -12 -81 -21 -29 -8 -59 -16 -65
-18 -6 -1 -18 -5 -26 -8 -13 -5 -122 -38 -142 -43 -5 -1 -9 -2 -10 -4 -2 -1
-10 -3 -18 -5 -8 -2 -47 -15 -87 -28 -39 -14 -74 -23 -77 -19 -3 3 -6 1 -6 -5
0 -6 -15 -14 -32 -18 -18 -4 -35 -9 -38 -10 -3 -1 -18 -7 -33 -13 -16 -7 -33
-12 -38 -12 -5 0 -21 -7 -35 -16 -13 -9 -27 -14 -31 -10 -3 3 -11 2 -17 -3 -6
-5 -56 -27 -111 -49 -55 -22 -118 -48 -140 -58 -22 -10 -42 -18 -45 -19 -3 0
-39 -16 -80 -35 -41 -19 -76 -33 -79 -32 -2 2 -7 -1 -11 -8 -4 -6 -13 -13 -21
-14 -14 -3 -183 -85 -209 -102 -8 -5 -37 -19 -65 -31 -27 -12 -46 -22 -42 -23
5 0 -24 -17 -65 -38 -40 -21 -113 -62 -162 -90 -49 -29 -93 -52 -97 -52 -5 0
-9 -4 -9 -8 0 -5 -25 -22 -55 -37 -30 -16 -55 -33 -55 -37 0 -4 -6 -8 -14 -8
-8 0 -28 -11 -44 -25 -17 -14 -35 -25 -41 -25 -6 0 -11 -5 -11 -11 0 -5 -4 -7
-10 -4 -5 3 -10 2 -10 -4 0 -6 -14 -18 -31 -27 -30 -15 -125 -81 -179 -124
-14 -11 -30 -20 -37 -20 -6 0 -13 -3 -15 -8 -4 -9 -135 -112 -143 -112 -3 0
-20 -14 -38 -32 -17 -17 -27 -28 -20 -24 6 3 14 2 17 -3 4 -5 14 -8 24 -6 9 1
31 -3 47 -10 17 -6 47 -15 68 -19 20 -4 37 -10 37 -15 0 -4 6 -8 13 -8 24 0
133 -56 212 -108 112 -75 210 -173 288 -286 58 -85 142 -261 126 -265 -2 0 2
-8 9 -17 7 -8 15 -28 17 -44 2 -15 7 -39 10 -53 8 -35 16 -87 19 -138 2 -23 5
-45 7 -47 3 -2 36 20 75 50 77 58 353 244 394 265 14 7 27 16 30 19 6 7 23 17
145 85 50 27 92 54 93 58 2 4 8 6 13 2 5 -3 9 -1 9 4 0 6 12 13 27 17 15 3 30
10 33 14 7 9 198 103 206 101 4 -1 10 2 13 7 3 5 29 19 56 30 28 12 82 36 120
54 39 18 73 32 77 31 4 -1 29 10 56 23 28 14 56 25 64 25 8 0 18 4 24 10 5 5
18 11 29 13 11 2 37 11 59 20 21 9 44 17 51 17 6 0 15 3 19 8 4 4 11 7 14 7 4
1 32 9 62 20 30 10 60 20 65 22 6 1 55 16 110 33 55 17 109 33 120 35 24 5
224 56 245 63 15 5 21 6 70 16 14 2 36 7 50 10 14 3 51 10 82 16 32 6 70 13
85 15 16 3 46 8 67 11 l40 6 -30 -29 c-42 -43 -106 -117 -124 -143 -8 -12 -20
-28 -26 -34 -6 -6 -13 -16 -15 -21 -2 -6 -14 -26 -26 -45 -12 -19 -22 -39 -22
-44 1 -5 -4 -12 -9 -15 -12 -8 -74 -139 -97 -206 -16 -48 -19 -60 -30 -106 -2
-11 -7 -29 -10 -39 -11 -34 -16 -65 -19 -116 -2 -28 -6 -55 -8 -60 -7 -12 -7
-236 0 -248 3 -5 6 -27 8 -50 3 -55 10 -93 24 -146 7 -25 13 -49 14 -55 1 -5
5 -16 9 -22 5 -7 6 -13 2 -13 -3 0 4 -18 15 -40 11 -22 18 -40 15 -40 -3 0 6
-22 20 -50 14 -27 22 -50 18 -50 -5 0 -3 -4 2 -8 6 -4 21 -27 34 -52 29 -55
73 -124 84 -128 4 -2 7 -9 7 -16 0 -6 8 -19 18 -28 9 -8 27 -29 39 -44 26 -35
121 -134 128 -134 3 0 18 -13 33 -30 16 -16 32 -30 35 -30 6 0 36 -22 61 -46
17 -16 60 -39 69 -36 4 1 7 -2 7 -7 0 -11 183 -102 245 -123 22 -7 42 -15 45
-18 5 -5 24 -9 65 -13 11 -1 22 -5 25 -8 5 -7 53 -16 115 -24 17 -2 32 -4 35
-5 3 -1 19 -2 35 -2 17 0 38 -4 48 -10 11 -6 17 -5 17 2 0 6 4 8 10 5 19 -11
50 -14 50 -4 0 6 6 7 13 2 16 -10 38 -10 58 -1 8 3 21 3 29 -2 8 -5 19 -6 25
-2 5 4 21 8 35 9 52 4 145 21 195 36 22 6 45 12 50 13 6 0 19 4 30 8 11 5 34
13 50 19 92 33 275 129 283 149 2 4 10 8 18 8 8 0 14 5 14 10 0 6 6 10 13 10
7 0 19 9 27 20 8 11 19 20 24 20 5 0 54 46 109 103 122 125 127 131 127 144 0
6 7 13 15 17 8 3 15 11 15 17 0 7 6 20 14 28 27 30 106 179 106 199 0 6 5 12
12 12 6 0 9 3 6 6 -4 3 1 22 9 42 17 41 52 154 59 192 2 14 7 36 10 50 21 84
22 480 1 480 -4 0 -6 3 -5 8 3 10 -10 66 -34 147 -21 73 -36 110 -72 185 -11
24 -20 48 -18 52 1 4 -2 8 -7 8 -5 0 -14 14 -21 30 -7 17 -17 30 -22 30 -5 0
-7 4 -4 9 3 4 -2 18 -12 29 -9 11 -24 30 -32 43 -23 35 -122 151 -150 177
l-25 23 35 -3 c19 -1 41 -7 49 -12 12 -9 13 -8 6 4 -7 12 -6 13 6 3 9 -7 31
-13 50 -14 19 -2 39 -5 44 -9 6 -3 17 -6 25 -5 8 1 29 -3 45 -8 43 -12 86 -20
113 -21 12 -1 22 -4 22 -7 0 -4 15 -9 33 -12 30 -5 65 -13 77 -17 3 -1 8 -2
12 -1 4 0 25 -6 47 -14 23 -8 41 -12 41 -10 0 2 16 -3 35 -11 19 -8 37 -14 40
-14 3 0 6 0 8 -1 1 0 9 -2 17 -4 43 -8 167 -48 178 -57 6 -6 12 -8 12 -5 0 3
24 -2 54 -13 30 -10 57 -16 60 -13 3 4 6 2 6 -4 0 -5 27 -18 60 -28 33 -10 60
-21 60 -24 0 -4 9 -7 20 -8 11 -1 35 -9 52 -17 17 -9 37 -16 45 -16 7 0 13 -5
13 -11 0 -5 4 -8 8 -5 5 3 26 -3 48 -13 21 -11 89 -41 149 -67 61 -26 113 -52
116 -57 3 -5 9 -8 13 -7 10 2 325 -158 336 -171 3 -3 41 -25 85 -49 44 -24 81
-47 83 -52 2 -4 9 -8 16 -8 7 0 21 -8 32 -17 19 -17 31 -24 87 -55 12 -7 24
-15 27 -18 3 -3 34 -26 70 -50 148 -99 348 -247 414 -305 6 -6 36 -30 66 -55
30 -25 62 -52 71 -60 8 -8 53 -49 99 -90 46 -41 116 -106 155 -145 127 -123
152 -142 245 -188 25 -12 47 -24 50 -27 3 -3 12 -6 20 -6 8 0 35 -6 60 -13 25
-7 72 -15 105 -17 33 -3 66 -7 73 -9 6 -2 12 -1 12 4 0 4 7 8 15 8 8 0 15 -4
15 -9 0 -5 5 -6 12 -2 7 4 28 9 47 11 20 2 67 15 106 28 38 14 74 26 80 27 5
2 18 11 29 21 11 9 24 17 29 17 14 0 87 59 136 109 87 91 161 232 177 341 4
25 10 52 15 61 5 9 6 19 3 22 -3 2 -7 46 -9 95 -2 50 -7 97 -11 104 -4 6 -9
26 -11 43 -2 16 -8 32 -13 33 -6 2 -10 10 -10 18 0 21 -45 108 -85 162 -34 47
-198 209 -335 332 -40 36 -80 72 -89 80 -20 18 -151 129 -177 150 -11 8 -46
37 -79 63 -95 75 -115 91 -130 105 -7 6 -18 12 -23 12 -6 0 -12 3 -14 8 -3 6
-50 43 -148 113 -96 70 -261 179 -270 179 -5 0 -10 4 -10 9 0 5 -13 14 -30 21
-16 7 -30 16 -30 20 0 4 -8 10 -17 13 -19 6 -74 38 -83 48 -3 3 -35 22 -72 42
-37 21 -70 42 -73 47 -4 6 -11 8 -16 5 -5 -4 -9 -1 -9 4 0 6 -6 11 -13 11 -7
0 -29 11 -50 25 -20 14 -37 22 -37 18 0 -4 -4 -3 -8 3 -4 6 -28 21 -54 33 -27
13 -50 27 -54 32 -3 5 -14 9 -24 9 -10 0 -20 3 -22 8 -2 6 -192 104 -208 107
-3 1 -30 13 -60 27 -106 49 -155 71 -155 67 0 -2 -17 7 -37 19 -21 13 -38 21
-38 18 0 -4 -22 5 -50 19 -27 14 -53 26 -57 26 -5 0 -24 8 -43 16 -19 8 -42
16 -52 18 -9 2 -30 11 -47 19 -16 9 -34 16 -40 16 -5 0 -22 5 -38 12 -15 6
-30 12 -33 13 -3 1 -12 4 -20 8 -17 6 -272 91 -280 92 -3 1 -25 8 -50 15 -25
7 -48 14 -52 16 -5 1 -9 2 -10 4 -2 1 -10 3 -18 5 -8 1 -42 10 -75 19 -33 10
-67 19 -75 21 -8 2 -15 4 -15 5 0 1 -9 3 -20 5 -11 2 -31 6 -45 10 -14 4 -36
9 -50 12 -14 2 -32 7 -40 10 -8 3 -22 7 -30 9 -51 11 -77 16 -96 18 -11 1 -24
5 -30 8 -5 3 -29 9 -54 13 -25 4 -53 9 -62 11 -10 2 -28 6 -40 9 -21 5 -93 17
-163 29 -16 3 -42 7 -57 11 -14 3 -46 7 -70 9 -24 3 -54 7 -68 10 -14 2 -45 7
-70 10 -42 5 -62 7 -185 21 -53 7 -157 15 -241 19 -28 1 -57 6 -64 11 -9 6
-11 4 -5 -5 6 -9 4 -11 -5 -5 -26 16 -588 27 -607 12 -8 -5 -13 -6 -13 0 0 8
-37 13 -44 6z"/>
<path d="M3206 13202 c-2 -1 -12 -4 -22 -6 -11 -2 -39 -9 -64 -16 -25 -7 -50
-13 -56 -14 -30 -5 -165 -81 -199 -111 -20 -19 -39 -35 -41 -35 -1 0 -34 -32
-71 -71 -37 -40 -90 -95 -118 -124 -27 -29 -75 -81 -105 -115 -30 -35 -62 -71
-70 -80 -8 -10 -32 -37 -52 -61 -21 -24 -50 -57 -64 -74 -58 -67 -234 -298
-234 -307 0 -5 -4 -6 -10 -3 -5 3 -10 0 -10 -8 0 -8 -11 -26 -25 -41 -13 -14
-21 -26 -17 -26 4 0 3 -4 -3 -8 -11 -8 -29 -33 -105 -147 -30 -44 -56 -82 -59
-85 -9 -8 -30 -42 -40 -67 -6 -11 -15 -24 -21 -28 -6 -4 -16 -17 -21 -28 -5
-12 -23 -42 -39 -67 -16 -25 -35 -56 -42 -70 -6 -14 -17 -32 -23 -40 -7 -8
-23 -35 -36 -60 -13 -25 -26 -47 -29 -50 -3 -3 -21 -34 -39 -70 -19 -36 -41
-73 -50 -84 -9 -10 -15 -20 -14 -22 4 -6 -31 -78 -42 -86 -7 -5 -7 -8 0 -8 7
0 7 -3 0 -8 -8 -6 -96 -175 -100 -192 0 -3 -14 -32 -29 -65 -27 -57 -84 -188
-101 -230 -5 -11 -7 -23 -7 -27 1 -5 -2 -8 -8 -8 -5 0 -10 -6 -10 -14 0 -7 -8
-31 -17 -52 -9 -22 -18 -44 -19 -50 -1 -6 -9 -27 -17 -45 -30 -65 -56 -142
-51 -151 3 -4 1 -8 -4 -8 -5 0 -15 -21 -22 -47 -7 -27 -17 -53 -21 -58 -4 -6
-11 -26 -14 -45 -3 -19 -11 -37 -16 -41 -6 -3 -10 -9 -9 -13 3 -13 -13 -71
-22 -83 -6 -7 -8 -13 -5 -13 3 0 -2 -24 -12 -52 -10 -29 -18 -55 -18 -58 0 -3
-5 -22 -12 -42 -7 -21 -10 -42 -7 -47 4 -5 2 -11 -3 -13 -9 -3 -21 -43 -23
-75 -1 -7 -4 -13 -8 -13 -3 0 -6 -8 -6 -17 -1 -21 -20 -108 -24 -108 -2 0 -7
-24 -15 -70 -4 -22 -11 -47 -15 -55 -4 -8 -8 -18 -8 -23 0 -11 -13 -88 -19
-112 -3 -11 -5 -30 -6 -42 -1 -13 -4 -23 -7 -23 -3 0 -7 -10 -7 -22 -2 -26
-11 -81 -20 -118 -3 -14 -8 -41 -10 -60 -10 -85 -11 -95 -13 -95 -3 0 -7 -27
-14 -90 -4 -33 -9 -73 -12 -90 -10 -69 -23 -198 -26 -252 0 -18 -6 -33 -11
-33 -6 0 -6 -5 -1 -12 5 -7 8 -24 7 -38 -14 -140 -17 -226 -17 -555 0 -424 3
-515 16 -532 6 -7 5 -14 -2 -18 -8 -5 -8 -11 1 -21 9 -11 8 -14 -2 -14 -9 0
-10 -3 -4 -8 6 -4 11 -25 12 -47 1 -37 4 -65 17 -200 6 -57 14 -118 21 -155 2
-14 6 -45 9 -70 8 -65 15 -111 21 -140 3 -14 12 -68 21 -120 19 -108 19 -110
27 -130 3 -8 9 -37 13 -65 4 -27 9 -57 11 -65 3 -8 4 -23 4 -32 0 -10 3 -18 7
-18 4 0 9 -10 10 -22 3 -30 6 -44 22 -98 7 -25 14 -54 15 -65 1 -11 3 -20 4
-20 4 0 13 -39 15 -62 0 -13 5 -23 9 -23 5 0 6 -4 2 -9 -3 -5 -1 -12 5 -16 5
-3 10 -19 10 -35 0 -16 4 -31 10 -35 5 -3 7 -12 3 -20 -3 -8 -1 -15 4 -15 5 0
10 -7 10 -15 0 -16 31 -121 44 -146 4 -9 11 -33 14 -53 4 -20 11 -39 16 -42 5
-3 7 -10 4 -15 -4 -5 -2 -9 2 -9 5 0 10 -12 11 -27 1 -15 8 -30 15 -35 6 -4 9
-8 5 -8 -4 0 4 -30 18 -67 33 -90 35 -97 35 -103 0 -3 7 -15 15 -27 8 -13 12
-23 10 -23 -3 0 6 -25 20 -55 13 -31 24 -62 24 -70 0 -8 5 -15 11 -15 6 0 9
-7 5 -15 -3 -8 -2 -15 3 -15 5 0 12 -11 15 -25 6 -25 38 -96 117 -262 22 -46
38 -84 37 -85 -2 -2 7 -19 18 -38 12 -19 43 -78 69 -130 27 -52 57 -107 66
-121 10 -14 16 -29 12 -33 -3 -3 -1 -6 6 -6 7 0 9 -5 6 -10 -3 -6 -1 -10 4
-10 6 0 11 -7 11 -15 0 -8 4 -15 8 -15 4 0 13 -12 19 -28 15 -36 55 -103 70
-120 7 -7 16 -24 19 -38 3 -13 9 -24 13 -24 4 0 18 -19 31 -42 26 -47 211
-330 220 -338 4 -3 28 -36 55 -75 26 -38 52 -72 57 -73 4 -2 8 -10 8 -18 0 -8
3 -14 8 -14 4 -1 27 -30 52 -65 46 -66 59 -76 61 -50 2 17 5 34 9 38 2 2 5 18
13 60 3 15 22 64 41 109 19 45 33 85 30 90 -3 4 3 8 12 8 10 0 15 3 11 6 -16
16 109 182 207 277 61 58 185 147 205 147 6 0 11 3 11 8 0 8 49 31 150 69 95
36 234 65 303 63 15 0 27 3 27 7 0 7 -72 105 -110 150 -5 7 -10 16 -10 22 0 5
-4 11 -9 13 -10 4 -151 216 -151 228 0 5 -3 10 -8 12 -4 2 -27 37 -52 78 -25
41 -48 77 -52 78 -5 2 -8 12 -8 23 0 10 -4 19 -8 19 -4 0 -21 26 -37 58 -16
31 -33 60 -39 64 -6 4 -8 8 -4 8 4 0 -5 21 -20 48 -69 117 -228 463 -224 485
1 4 -3 7 -9 7 -5 0 -7 5 -4 10 3 6 2 10 -3 10 -5 0 -14 19 -21 42 -7 23 -18
53 -24 67 -6 14 -11 28 -12 31 -1 3 -6 16 -12 30 -5 14 -18 50 -28 80 -11 30
-23 59 -27 64 -4 6 -8 19 -8 31 0 12 -5 26 -12 33 -7 7 -9 12 -6 12 4 0 -4 33
-18 73 -14 39 -27 79 -29 87 -28 106 -37 137 -42 150 -3 8 -7 20 -8 25 -1 6
-3 12 -4 15 -3 7 -9 36 -17 83 -3 20 -9 37 -13 37 -3 0 -7 16 -8 37 -1 20 -6
48 -12 62 -6 14 -12 46 -13 71 -2 25 -5 47 -8 50 -8 7 -42 191 -37 197 3 2 25
-16 50 -41 58 -57 188 -156 204 -156 7 0 13 -4 13 -9 0 -10 184 -103 248 -125
22 -8 43 -12 46 -9 3 4 6 1 6 -6 0 -7 7 -11 15 -8 8 4 17 2 19 -2 5 -7 54 -20
101 -26 6 -1 24 -5 42 -9 17 -4 52 -9 76 -10 24 -2 48 -5 53 -8 20 -9 243 2
334 17 25 4 52 9 60 10 8 1 35 8 60 16 25 7 50 14 55 14 6 1 27 9 49 18 21 9
42 17 46 17 3 0 38 15 76 34 38 18 73 34 77 34 4 1 15 8 23 17 9 8 21 15 29
15 7 0 15 4 17 8 2 5 28 25 58 45 120 81 244 207 342 347 26 39 48 73 48 76 0
3 9 18 19 32 10 15 19 29 19 32 0 3 14 36 31 73 17 38 31 75 31 82 0 8 5 17
10 20 6 3 10 17 10 30 0 13 5 27 10 30 6 4 8 10 5 15 -3 5 0 21 6 37 13 32 15
40 23 103 3 25 8 63 12 84 6 38 6 251 0 291 -2 11 -6 47 -11 80 -4 33 -10 65
-13 70 -4 6 -8 21 -10 34 -2 13 -10 42 -18 65 -8 23 -17 50 -19 61 -3 11 -9
29 -14 40 -45 99 -55 121 -53 128 1 4 -3 7 -8 7 -6 0 -10 4 -10 9 0 12 -63
115 -72 119 -5 2 -8 8 -8 14 0 5 -6 15 -12 22 -7 7 -24 28 -38 47 -72 96 -254
257 -365 320 -56 32 -173 89 -182 89 -4 0 -21 7 -37 15 -15 8 -38 17 -50 19
-11 3 -44 12 -72 20 -28 9 -63 17 -78 18 -14 1 -26 5 -26 8 0 3 -10 6 -22 6
-72 5 -183 14 -185 15 -10 6 -30 4 -40 -4 -8 -6 -13 -6 -13 1 0 6 -8 9 -17 7
-10 -2 -18 -4 -18 -5 0 0 -29 -3 -65 -5 -65 -3 -85 -6 -170 -24 -71 -15 -85
-18 -136 -36 -27 -9 -54 -18 -60 -19 -7 -1 -19 -8 -28 -15 -9 -7 -16 -10 -16
-6 0 4 -7 2 -15 -5 -8 -7 -15 -10 -15 -7 0 3 -33 -13 -72 -35 -40 -22 -83 -46
-95 -52 -13 -6 -23 -14 -23 -18 0 -5 -6 -8 -12 -8 -7 0 -27 -13 -45 -28 -17
-15 -44 -37 -60 -49 -15 -12 -47 -40 -70 -62 -23 -23 -45 -41 -48 -41 -2 0 -2
17 1 38 4 20 8 46 10 57 1 11 3 20 4 20 1 0 3 11 6 25 4 29 16 91 20 105 1 6
5 26 9 45 3 19 11 53 17 75 5 22 12 51 14 65 3 14 8 34 11 45 4 11 8 25 9 30
1 6 5 24 9 40 4 17 7 38 8 48 1 9 4 17 8 17 4 0 10 20 13 45 4 25 11 45 16 45
5 0 9 8 8 18 0 21 6 45 25 99 9 22 13 44 10 47 -4 3 -2 6 4 6 5 0 10 6 11 13
1 14 7 36 15 60 10 24 16 46 17 52 0 3 7 19 15 35 9 17 13 30 10 30 -3 0 0 10
7 23 7 12 13 24 13 27 2 22 99 250 105 250 5 0 7 7 4 15 -4 8 -2 15 3 15 5 0
10 7 11 15 1 8 3 22 4 30 1 8 5 15 10 15 4 0 8 7 8 15 0 8 5 15 11 15 5 0 8 4
5 9 -3 4 1 17 9 27 8 10 15 27 15 37 0 9 5 17 10 17 6 0 9 3 8 8 -3 9 84 186
95 190 4 2 7 12 7 23 0 10 5 19 10 19 6 0 10 5 10 11 0 5 25 54 56 107 31 53
66 113 76 132 11 19 29 47 39 62 11 14 19 31 19 37 0 6 5 11 10 11 6 0 10 4
10 9 0 5 33 57 73 115 39 59 78 118 85 131 7 14 17 25 22 25 5 0 12 9 15 20 4
11 18 32 31 45 14 14 22 25 20 25 -3 0 3 10 13 23 10 12 56 69 102 127 46 58
88 110 93 117 6 6 31 34 56 63 67 77 156 174 238 259 90 94 152 167 152 179 0
5 8 20 18 33 19 24 58 124 67 169 15 72 18 101 18 165 -1 81 -7 128 -22 168
-6 16 -9 32 -6 37 3 5 -3 16 -12 26 -10 10 -17 20 -15 23 3 6 -29 83 -38 91
-3 3 -17 23 -31 45 -45 70 -185 195 -217 195 -6 0 -12 4 -14 8 -3 9 -126 61
-162 68 -63 13 -242 25 -250 16z"/>
<path d="M13579 12338 c0 -2 -2 -14 -5 -28 -7 -45 -27 -115 -35 -126 -5 -6 -6
-14 -2 -18 4 -4 2 -10 -4 -14 -6 -4 -13 -18 -14 -32 -2 -14 -7 -27 -10 -30 -4
-3 -15 -23 -26 -45 -43 -85 -57 -110 -70 -123 -7 -8 -18 -23 -24 -34 -24 -44
-140 -166 -204 -213 -22 -17 -42 -32 -45 -36 -25 -28 -290 -158 -290 -142 0 3
-7 -1 -17 -8 -9 -8 -18 -13 -20 -11 -1 1 -4 2 -5 1 -2 0 -12 -2 -23 -4 -11 -2
-31 -6 -45 -9 -39 -10 -122 -20 -152 -18 -36 2 -32 -10 33 -98 31 -41 73 -100
93 -130 21 -30 42 -58 48 -61 5 -3 10 -10 9 -15 0 -5 16 -34 36 -64 74 -111
83 -126 83 -137 0 -6 4 -13 8 -15 9 -3 68 -98 83 -132 9 -22 30 -57 39 -66 15
-15 168 -329 163 -334 -4 -3 -2 -6 4 -6 6 0 14 -12 18 -27 3 -15 11 -31 16
-34 6 -3 11 -12 13 -20 1 -8 10 -31 19 -51 21 -48 37 -85 72 -173 15 -38 33
-83 41 -100 7 -16 23 -61 35 -100 13 -38 27 -72 31 -73 4 -2 6 -8 2 -13 -3 -5
-2 -15 3 -21 4 -7 8 -15 9 -18 0 -3 8 -31 18 -62 9 -32 17 -61 18 -65 0 -5 5
-17 11 -28 6 -11 10 -25 9 -32 -1 -6 2 -14 7 -18 6 -3 8 -12 4 -20 -3 -8 1
-15 8 -15 7 0 10 -3 7 -6 -4 -3 2 -34 12 -70 10 -35 19 -67 19 -69 1 -3 2 -7
2 -10 1 -3 3 -9 4 -15 1 -5 4 -12 5 -15 1 -3 3 -13 5 -22 1 -10 5 -25 9 -34 4
-9 6 -20 5 -25 -1 -5 0 -11 1 -14 7 -18 28 -114 34 -154 4 -21 9 -42 12 -47 3
-5 7 -23 8 -41 2 -18 7 -51 11 -73 4 -22 9 -48 11 -57 4 -26 -5 -22 -42 15
-29 28 -76 70 -111 97 -39 31 -161 110 -170 110 -6 0 -16 7 -23 15 -6 8 -15
14 -18 13 -6 -1 -57 20 -137 57 -72 34 -246 72 -355 79 -25 1 -51 6 -58 10 -7
4 -12 2 -12 -4 0 -8 -6 -8 -20 0 -15 8 -20 8 -20 -1 0 -8 -4 -8 -12 -2 -7 6
-22 9 -33 6 -11 -2 -47 -5 -80 -7 -70 -5 -117 -12 -177 -26 -24 -6 -56 -13
-73 -16 -16 -3 -32 -9 -35 -12 -3 -4 -14 -8 -25 -10 -82 -13 -291 -124 -415
-221 -58 -45 -210 -197 -210 -210 0 -5 -4 -11 -8 -13 -41 -16 -185 -277 -227
-411 -29 -89 -30 -94 -46 -177 -27 -137 -29 -381 -4 -490 3 -14 10 -45 16 -70
11 -51 9 -43 36 -130 24 -74 77 -191 107 -235 12 -16 21 -32 21 -35 2 -35 258
-330 287 -330 3 0 20 -13 36 -30 17 -17 35 -30 40 -30 5 0 21 -11 36 -25 14
-13 26 -21 26 -18 0 3 8 -1 18 -9 25 -23 186 -103 227 -114 6 -1 33 -10 60
-20 28 -9 57 -19 65 -22 8 -3 29 -7 45 -9 17 -2 37 -7 45 -10 25 -10 43 -13
100 -16 31 -2 60 -5 65 -8 12 -6 166 -3 245 4 71 7 112 14 185 34 33 8 65 16
70 18 11 2 27 8 105 38 84 32 209 99 244 130 11 9 23 17 28 17 9 0 44 27 67
53 8 9 19 17 23 17 5 0 31 22 59 50 28 27 52 50 55 50 2 0 2 -10 -1 -22 -3
-13 -7 -36 -9 -53 -7 -56 -17 -110 -28 -150 -6 -22 -12 -53 -15 -70 -2 -16
-23 -102 -45 -190 -22 -88 -41 -167 -43 -175 -1 -8 -7 -28 -14 -43 -6 -16 -11
-32 -11 -36 0 -4 -16 -56 -36 -117 -20 -60 -37 -113 -39 -119 -3 -16 -16 -48
-28 -74 -7 -13 -12 -29 -12 -35 -1 -6 -7 -24 -14 -41 -7 -16 -14 -34 -15 -40
-3 -10 -6 -18 -51 -125 -30 -73 -41 -97 -84 -193 -17 -38 -31 -73 -31 -78 0
-5 -5 -9 -11 -9 -5 0 -7 -4 -4 -10 3 -5 1 -10 -4 -10 -6 0 -10 -3 -9 -7 3 -10
-49 -119 -74 -154 -9 -14 -15 -29 -11 -33 3 -3 0 -6 -7 -6 -7 0 -10 -3 -7 -6
4 -4 -2 -19 -13 -34 -11 -16 -20 -33 -20 -39 0 -6 -4 -11 -10 -11 -5 0 -10 -6
-10 -13 0 -7 -29 -62 -65 -122 -36 -59 -65 -110 -65 -112 0 -2 -5 -9 -10 -16
-6 -7 -53 -77 -106 -157 -76 -114 -225 -321 -286 -395 -5 -5 -16 -20 -26 -31
-41 -51 -99 -120 -117 -140 -11 -13 -41 -47 -66 -76 -26 -29 -75 -82 -109
-118 -209 -220 -204 -214 -237 -280 -9 -19 -20 -37 -24 -40 -3 -3 -12 -23 -19
-45 -7 -22 -18 -43 -24 -47 -8 -5 -7 -8 2 -8 10 0 10 -5 1 -22 -7 -13 -13 -36
-14 -53 0 -17 -3 -35 -6 -40 -5 -10 -4 -157 1 -162 1 -2 3 -15 4 -30 5 -68 77
-244 110 -272 9 -8 16 -20 16 -27 0 -8 4 -14 10 -14 5 0 20 -16 32 -35 13 -19
26 -35 30 -35 6 0 42 -28 79 -63 10 -9 25 -17 33 -17 8 0 16 -7 20 -15 3 -8
12 -15 20 -15 9 0 30 -8 48 -18 31 -17 84 -34 153 -48 39 -8 212 -8 245 0 14
3 39 8 55 12 54 10 185 73 192 91 3 7 9 11 13 8 14 -9 141 113 317 305 37 41
79 86 93 101 51 55 70 79 70 90 0 5 5 7 10 4 6 -3 10 -1 10 4 0 6 8 19 18 29
9 10 33 38 52 62 19 24 43 53 52 64 10 12 33 41 53 66 19 25 43 54 52 66 10
11 23 27 28 36 6 8 28 40 51 69 22 30 58 79 78 109 21 30 43 58 49 62 7 4 8 8
2 8 -7 0 -7 3 0 8 6 4 24 27 40 52 17 25 36 51 43 58 6 7 12 18 12 23 0 5 9
19 20 31 11 12 20 28 20 35 0 7 4 13 9 13 5 0 14 14 21 30 7 17 16 30 21 30 5
0 9 5 9 11 0 6 14 30 30 54 17 24 30 46 30 49 0 2 22 41 49 85 27 44 47 81 45
84 -3 2 2 10 11 17 8 7 15 18 15 25 0 7 7 18 15 25 8 7 15 21 15 31 0 11 4 19
8 19 7 0 32 41 37 60 0 3 14 30 30 60 43 81 169 341 170 350 1 3 11 27 23 54
12 27 22 55 22 62 0 8 5 14 10 14 6 0 10 7 10 15 0 8 4 23 9 33 20 38 44 98
44 110 0 6 5 12 10 12 6 0 8 3 5 6 -4 3 7 38 23 77 50 121 182 520 177 537 -1
3 4 14 10 26 6 11 13 32 16 45 3 13 15 58 26 99 11 41 22 84 24 95 2 11 13 56
25 100 11 44 22 94 25 110 3 17 8 41 11 55 9 39 17 83 19 106 1 11 5 24 8 30
3 5 4 17 3 27 -2 9 0 17 4 17 4 0 7 8 8 18 1 20 7 61 24 157 6 39 12 82 13 98
0 15 3 27 6 27 3 0 5 15 6 33 2 52 13 127 20 139 5 7 3 8 -5 3 -10 -6 -11 -3
-2 13 6 11 12 50 15 88 2 38 5 69 6 69 2 0 12 164 14 227 0 32 4 58 7 58 7 0
3 770 -5 855 -3 33 -7 89 -10 125 -3 36 -8 94 -12 130 -3 36 -7 79 -9 95 -1
17 -4 30 -5 30 -1 0 -7 47 -15 130 -2 22 -4 40 -5 40 -3 0 -10 42 -14 93 -2
29 -10 60 -18 69 -9 12 -10 15 0 9 6 -4 12 -3 12 3 0 5 -4 12 -9 15 -4 3 -7
17 -6 31 2 14 0 25 -4 25 -4 0 -7 10 -8 23 0 12 -3 35 -6 51 -11 53 -21 121
-19 129 1 4 -3 7 -9 7 -5 0 -8 3 -5 8 2 4 -2 34 -10 67 -8 33 -16 69 -18 80
-2 11 -10 43 -16 70 -6 28 -13 57 -15 65 -2 8 -11 42 -20 75 -9 33 -17 65 -18
70 -2 6 -5 15 -8 20 -4 6 -5 18 -4 28 2 9 0 17 -4 17 -3 0 -12 26 -20 58 -7
31 -18 63 -23 70 -6 6 -8 12 -5 12 3 0 -2 24 -12 53 -10 28 -19 54 -19 57 0 3
-6 18 -12 34 -6 16 -12 36 -14 45 -2 9 -8 29 -14 44 -7 16 -12 35 -12 43 0 8
-5 14 -12 14 -6 0 -9 3 -5 6 5 5 -7 44 -38 119 -5 11 -9 22 -10 25 -19 64 -30
90 -36 90 -5 0 -6 7 -3 15 4 8 1 15 -5 15 -6 0 -10 3 -10 8 1 4 0 10 -1 15 -1
4 -3 10 -5 15 -3 12 -24 60 -50 118 -14 30 -25 56 -25 58 0 17 -222 470 -232
474 -5 2 -8 12 -8 22 0 10 -3 20 -7 22 -5 2 -16 19 -27 38 -57 108 -90 167
-102 181 -8 9 -11 19 -7 22 3 4 1 7 -5 7 -7 0 -12 5 -12 10 0 6 -8 23 -18 38
-18 26 -50 76 -86 134 -9 15 -16 30 -16 33 0 3 -9 15 -20 27 -11 12 -20 26
-20 30 0 5 -8 18 -18 29 -11 10 -25 32 -33 47 -8 15 -17 29 -20 32 -3 3 -21
28 -39 55 -50 74 -251 345 -256 345 -2 0 -4 -1 -5 -2z"/>
<path d="M7798 4475 c-2 -1 -31 -5 -65 -8 -88 -9 -284 -59 -310 -80 -7 -5 -13
-7 -13 -3 0 3 -16 -3 -35 -14 -20 -11 -42 -20 -50 -20 -7 0 -20 -6 -27 -13 -7
-7 -28 -19 -45 -26 -18 -7 -33 -18 -33 -23 0 -5 -4 -7 -8 -4 -5 3 -32 -13 -60
-35 -29 -21 -55 -39 -57 -39 -19 0 -235 -215 -272 -271 -14 -21 -30 -39 -35
-39 -5 0 -7 -4 -4 -9 3 -5 -1 -14 -9 -21 -8 -7 -15 -19 -15 -26 0 -8 -4 -14
-10 -14 -5 0 -10 -6 -10 -14 0 -7 -7 -19 -15 -26 -8 -7 -12 -16 -9 -21 3 -5 1
-9 -4 -9 -10 0 -36 -58 -33 -72 0 -5 -4 -8 -9 -8 -5 0 -9 -3 -8 -7 1 -5 -5
-21 -12 -38 -7 -16 -14 -36 -16 -43 -1 -8 -6 -21 -10 -30 -4 -9 -8 -20 -9 -24
-2 -5 -4 -10 -5 -13 -1 -3 -3 -8 -4 -12 -1 -5 -10 -43 -20 -86 -9 -42 -18 -87
-20 -100 -1 -13 -6 -28 -10 -35 -4 -7 -2 -12 4 -12 7 0 8 -6 2 -17 -12 -25
-13 -235 -1 -249 7 -8 6 -14 -1 -19 -6 -3 -8 -11 -4 -16 3 -5 8 -26 10 -47 3
-30 14 -87 30 -157 18 -84 100 -268 159 -361 19 -30 35 -57 35 -60 0 -3 6 -11
13 -19 6 -7 28 -32 47 -56 19 -24 54 -62 76 -86 23 -23 40 -44 37 -46 -2 -2
-28 1 -58 8 -29 7 -56 11 -59 8 -2 -3 -10 -1 -18 3 -7 4 -24 8 -38 9 -14 1
-36 5 -50 10 -14 4 -36 9 -50 11 -14 2 -45 8 -70 14 -25 6 -56 13 -70 15 -14
3 -59 15 -100 26 -41 12 -85 23 -97 25 -12 2 -34 9 -48 14 -14 5 -25 7 -25 4
0 -4 -6 -2 -12 3 -7 6 -38 16 -68 24 -30 7 -58 17 -61 22 -3 5 -8 7 -10 6 -7
-5 -99 23 -105 32 -2 4 -11 6 -19 2 -8 -3 -15 1 -15 8 0 7 -3 10 -6 6 -4 -3
-22 0 -41 8 -19 8 -39 12 -44 9 -5 -3 -9 -1 -9 5 0 6 -12 14 -27 17 -16 4 -34
12 -42 18 -8 6 -17 10 -20 10 -6 -1 -14 1 -48 12 -10 3 -20 5 -23 6 -3 0 -16
6 -30 14 -23 12 -97 45 -110 48 -3 1 -15 7 -27 14 -13 7 -23 10 -23 7 0 -3
-10 1 -22 9 -12 9 -31 16 -41 16 -10 0 -15 5 -12 10 3 6 -1 10 -10 10 -22 0
-321 151 -460 233 -144 84 -392 242 -405 257 -3 3 -18 14 -35 24 -30 19 -255
185 -265 196 -3 3 -41 34 -85 69 -44 36 -87 72 -96 80 -9 9 -47 43 -85 76 -38
33 -85 77 -105 97 -20 20 -40 34 -43 31 -3 -4 -6 -2 -6 4 0 19 -173 178 -212
196 -16 6 -28 15 -28 19 0 5 -3 7 -7 6 -5 0 -30 9 -58 22 -27 13 -59 25 -70
27 -11 2 -27 6 -35 10 -19 8 -52 13 -116 17 -28 1 -56 6 -62 10 -7 4 -12 3
-12 -2 0 -5 -18 -8 -40 -6 -22 1 -40 -2 -40 -7 0 -6 -4 -7 -10 -4 -9 5 -75 -8
-110 -22 -8 -4 -17 -7 -20 -8 -3 -1 -18 -7 -33 -13 -16 -7 -30 -12 -33 -12
-13 0 -144 -100 -182 -139 -48 -50 -102 -124 -102 -139 0 -6 -5 -12 -10 -14
-6 -2 -12 -14 -15 -27 -2 -14 -10 -28 -16 -31 -6 -4 -10 -11 -10 -16 1 -5 -3
-22 -9 -39 -36 -114 -36 -337 1 -420 60 -138 76 -167 124 -222 44 -51 167
-174 263 -262 123 -112 124 -113 177 -156 26 -22 55 -47 64 -56 9 -8 39 -33
66 -55 28 -21 52 -41 55 -44 3 -3 34 -28 70 -55 72 -56 92 -72 122 -97 12 -10
24 -18 28 -18 4 0 18 -10 32 -22 14 -13 34 -29 44 -36 10 -7 77 -53 147 -102
71 -50 132 -90 136 -90 4 0 16 -8 27 -17 11 -10 35 -27 54 -37 19 -11 37 -23
40 -27 3 -4 12 -9 20 -11 8 -2 20 -7 27 -13 34 -27 50 -37 128 -79 11 -6 23
-15 27 -21 4 -5 8 -6 8 -1 0 4 16 -4 35 -18 19 -15 35 -23 35 -19 0 4 4 3 8
-2 7 -10 67 -44 167 -95 28 -14 52 -27 55 -30 5 -5 140 -73 150 -75 8 -3 204
-94 222 -105 10 -6 25 -10 33 -10 8 0 15 -4 15 -10 0 -5 8 -10 18 -10 10 0 22
-3 26 -8 4 -4 11 -7 14 -8 4 0 23 -8 42 -16 61 -26 75 -31 83 -30 4 1 7 -3 7
-8 0 -6 11 -10 25 -10 14 0 25 -4 25 -10 0 -5 3 -9 8 -8 7 3 50 -12 102 -35
14 -6 27 -11 30 -12 34 -9 85 -27 126 -43 29 -12 55 -18 58 -15 3 4 6 0 6 -7
0 -7 3 -11 6 -7 4 3 19 0 35 -9 16 -8 29 -12 29 -10 0 3 19 -2 43 -10 23 -9
47 -17 52 -18 6 -2 17 -6 25 -9 24 -9 74 -20 83 -19 4 1 7 -2 7 -7 0 -5 8 -8
18 -6 9 1 29 -4 44 -11 15 -8 31 -13 35 -12 4 1 33 -6 65 -15 31 -9 66 -17 77
-17 12 0 21 -4 21 -8 0 -4 12 -9 28 -10 15 -1 43 -8 62 -14 19 -7 41 -11 49
-9 7 1 20 -1 30 -5 21 -9 18 -9 71 -19 48 -9 56 -11 68 -15 4 -1 11 -2 15 -1
4 1 17 -4 29 -10 16 -8 19 -8 13 1 -6 9 -3 9 13 1 11 -6 31 -11 45 -11 13 0
27 -3 31 -7 4 -4 19 -9 34 -10 56 -5 147 -19 147 -23 0 -1 16 -3 35 -5 19 -1
35 -3 35 -5 0 -1 18 -4 40 -6 70 -6 102 -11 113 -18 6 -3 14 -2 17 4 5 7 11 8
19 1 6 -5 34 -11 61 -12 28 -1 54 -5 60 -7 5 -3 32 -7 60 -8 48 -3 152 -10
265 -20 121 -10 675 -12 694 -2 13 7 16 7 11 -2 -5 -8 2 -10 27 -5 18 3 76 8
128 11 52 3 129 8 170 11 41 3 96 6 123 7 26 0 47 4 47 7 0 3 21 7 48 8 26 1
61 4 77 7 28 5 74 11 135 19 14 2 25 4 25 5 0 1 14 3 30 4 29 3 89 12 150 23
17 3 42 6 58 7 15 0 27 3 27 6 0 4 10 6 23 7 12 1 35 4 52 8 16 3 61 13 100
21 38 9 79 18 90 21 11 2 29 6 40 8 25 5 48 10 105 25 25 6 52 13 60 14 8 2
23 6 32 10 9 4 21 5 27 2 5 -4 12 -2 15 3 4 5 24 12 46 16 22 4 42 11 46 16 3
5 10 7 15 3 5 -3 15 -2 22 3 7 6 38 16 70 23 31 7 57 17 57 22 0 5 4 7 9 4 5
-3 41 5 80 19 39 13 71 21 71 17 0 -4 4 -1 8 6 5 7 20 15 33 17 14 3 62 18
107 34 45 17 82 27 82 23 0 -4 4 -2 8 4 4 5 36 21 72 34 36 13 81 30 100 39
19 8 40 16 45 17 6 1 33 13 60 25 28 13 52 23 55 24 3 0 21 8 40 17 44 21 94
40 99 38 2 -1 7 3 11 10 4 6 13 12 21 14 22 3 333 159 341 171 4 5 8 6 8 2 0
-5 12 0 28 11 30 21 63 36 75 34 4 -1 7 3 7 9 0 5 14 15 30 20 17 6 30 16 30
22 0 6 3 8 6 4 3 -3 27 7 52 23 48 29 211 127 241 145 9 6 31 20 48 33 17 12
36 22 41 22 6 0 12 3 14 8 4 8 65 52 73 52 3 0 11 5 18 11 7 6 62 45 122 87
158 110 275 201 275 213 0 4 -9 8 -20 8 -11 1 -29 1 -40 2 -11 0 -20 4 -20 7
0 4 -9 8 -21 9 -24 2 -109 33 -126 46 -7 5 -13 7 -13 3 0 -9 -122 58 -195 108
-75 50 -196 171 -257 256 -44 62 -134 228 -130 241 0 4 -8 31 -19 60 -12 30
-21 61 -21 69 0 8 -4 31 -9 51 -5 20 -10 59 -12 88 -4 61 -17 79 -40 57 -9 -9
-21 -16 -27 -16 -6 0 -9 -4 -6 -8 2 -4 -8 -13 -23 -20 -15 -7 -36 -20 -47 -30
-10 -9 -39 -30 -64 -47 -43 -29 -51 -34 -85 -63 -8 -7 -15 -10 -15 -7 0 4 -18
-8 -40 -25 -22 -17 -40 -29 -40 -25 0 3 -7 0 -15 -9 -8 -8 -39 -28 -67 -46
-70 -41 -88 -52 -120 -73 -16 -10 -28 -15 -28 -12 0 4 -7 -1 -16 -9 -8 -9 -21
-16 -29 -16 -7 0 -15 -4 -17 -9 -3 -7 -59 -38 -258 -142 -25 -13 -47 -24 -50
-24 -3 -1 -36 -17 -75 -35 -38 -19 -72 -35 -75 -36 -3 0 -23 -9 -45 -19 -22
-10 -42 -19 -45 -20 -3 -1 -16 -6 -30 -12 -14 -6 -54 -23 -90 -37 -36 -15 -74
-31 -85 -36 -25 -11 -118 -45 -125 -45 -3 0 -27 -9 -55 -19 -75 -27 -79 -29
-92 -33 -7 -1 -19 -5 -25 -6 -7 -2 -26 -9 -41 -15 -16 -7 -32 -12 -36 -12 -5
0 -44 -11 -87 -25 -43 -14 -88 -27 -99 -30 -11 -2 -35 -8 -53 -14 -18 -5 -35
-10 -37 -10 -3 -1 -6 -1 -7 -2 -2 0 -10 -2 -18 -4 -29 -6 -66 -15 -155 -35
-49 -11 -105 -23 -124 -26 -48 -8 -70 -12 -89 -18 -9 -3 -33 -7 -52 -10 -19
-3 -45 -8 -57 -10 -13 -3 -23 -3 -23 -2 0 2 19 24 43 48 91 96 184 230 241
348 20 41 36 75 36 75 -1 0 4 14 10 30 7 17 14 37 16 45 2 8 13 47 24 85 21
71 25 90 39 202 7 57 6 260 -2 328 -5 40 -27 145 -42 200 -1 6 -3 13 -4 17 -1
4 -10 28 -21 53 -11 25 -19 47 -19 50 0 3 -12 30 -26 60 -14 31 -25 60 -25 65
0 6 -4 10 -10 10 -5 0 -10 5 -10 11 0 6 -13 31 -30 56 -16 24 -30 48 -30 52 0
4 -9 16 -20 26 -11 10 -20 22 -20 27 0 19 -181 205 -245 253 -22 17 -42 32
-45 35 -3 4 -23 17 -45 30 -22 13 -42 27 -45 30 -11 14 -171 90 -240 115 -89
32 -90 32 -160 46 -30 6 -62 14 -70 17 -8 3 -28 6 -45 7 -16 2 -30 4 -30 5 0
3 -264 8 -267 5z"/>
</g>
</svg>
