<svg xmlns="http://www.w3.org/2000/svg" xmlns:xlink="http://www.w3.org/1999/xlink" viewBox="0 0 1920 720"><defs><linearGradient id="linear-gradient" x1="258.04" y1="-2201.82" x2="258.04" y2="-1660.46" gradientTransform="translate(-89.52 2580.63)" gradientUnits="userSpaceOnUse"><stop offset=".19" stop-color="#9d9fc6"/><stop offset=".28" stop-color="#8586a7"/><stop offset=".47" stop-color="#56576c"/><stop offset=".64" stop-color="#31313e"/><stop offset=".79" stop-color="#16161c"/><stop offset=".92" stop-color="#060607"/><stop offset="1"/></linearGradient><linearGradient id="linear-gradient-2" x1="6145.93" y1="4628.7" x2="5915.71" y2="4858.91" gradientTransform="matrix(.23 -.71 .23 .71 -1219.4 940.43)" xlink:href="#linear-gradient"/><linearGradient id="linear-gradient-3" x1="6038.55" y1="5458.67" x2="5808.33" y2="5688.89" gradientTransform="matrix(.23 -.71 .23 .71 -1736.42 863.01)" xlink:href="#linear-gradient"/><linearGradient id="linear-gradient-4" x1="7854" y1="6624.42" x2="7623.78" y2="6854.64" gradientTransform="matrix(.23 -.71 .23 .71 -1611.03 1479.1)" xlink:href="#linear-gradient"/><linearGradient id="linear-gradient-5" x1="-16250.99" y1="-8675.61" x2="-16481.21" y2="-8445.4" gradientTransform="matrix(.23 -.71 .23 .71 7390.17 -5764.47)" xlink:href="#linear-gradient"/><linearGradient id="linear-gradient-6" x1="-14490.39" y1="-8089.4" x2="-14720.61" y2="-7859.18" gradientTransform="matrix(.23 -.71 .23 .71 5887.84 -4725.92)" xlink:href="#linear-gradient"/><linearGradient id="linear-gradient-7" x1="-12693.28" y1="-6883.17" x2="-12923.5" y2="-6652.95" gradientTransform="matrix(.23 -.71 .23 .71 6390.1 -3910.26)" xlink:href="#linear-gradient"/><linearGradient id="linear-gradient-8" x1="-8973.24" y1="-3972.08" x2="-9203.46" y2="-3741.86" gradientTransform="matrix(.23 -.71 .23 .71 3399.82 -4004.85)" xlink:href="#linear-gradient"/><linearGradient id="linear-gradient-9" x1="453.43" y1="-287.67" x2="27.38" y2="138.37" gradientTransform="rotate(-45 -91.249 256.996)" xlink:href="#linear-gradient"/><linearGradient id="linear-gradient-10" x1="851.41" y1="381.83" x2="425.37" y2="807.87" gradientTransform="rotate(-45 290.74 942.511)" gradientUnits="userSpaceOnUse"><stop offset=".19" stop-color="#ddd3eb"/><stop offset=".36" stop-color="#9e97a8"/><stop offset=".53" stop-color="#66616c"/><stop offset=".68" stop-color="#3a373e"/><stop offset=".81" stop-color="#1a191c"/><stop offset=".93" stop-color="#070707"/><stop offset="1"/></linearGradient><linearGradient id="linear-gradient-11" x1="494.77" y1="989" x2="1258.74" y2="989" gradientTransform="rotate(-45 876.756 988.996)" xlink:href="#linear-gradient"/><linearGradient id="linear-gradient-12" x1="-7100.28" y1="-1621.33" x2="-7678.94" y2="-1042.67" gradientTransform="rotate(180 -2722.09 -502.82)" xlink:href="#linear-gradient"/><linearGradient id="linear-gradient-13" x1="168.51" y1="837.07" x2="765.01" y2="837.07" gradientTransform="rotate(-45 466.757 837.073)" xlink:href="#linear-gradient-10"/><linearGradient id="linear-gradient-14" x1="-7112.42" y1="-992.66" x2="-7538.46" y2="-566.62" gradientTransform="rotate(-45 -2099.916 -11963.046)" xlink:href="#linear-gradient"/><linearGradient id="linear-gradient-15" x1="1508.73" y1="189.77" x2="2174.8" y2="-416.29" gradientTransform="rotate(135 2012.928 -269.002)" xlink:href="#linear-gradient-10"/><pattern id="New_Pattern_12" data-name="New Pattern 12" width="26" height="26" patternTransform="translate(-79.57 608.99)" patternUnits="userSpaceOnUse"><path class="cls-1" d="M0 0h26v26H0z"/><circle class="cls-3" cx="13" cy="13" r="3.67"/></pattern><pattern id="New_Pattern_12-3" data-name="New Pattern 12" width="26" height="26" patternTransform="translate(-54.4 598.63)" patternUnits="userSpaceOnUse"><path class="cls-1" d="M0 0h26v26H0z"/><circle class="cls-3" cx="13" cy="13" r="3.67"/></pattern><pattern id="New_Pattern_11" data-name="New Pattern 11" width="26" height="26" patternTransform="translate(-60.4 574.34)" patternUnits="userSpaceOnUse"><path class="cls-1" d="M0 0h26v26H0z"/><circle cx="13" cy="13" r="3.67" fill="#0543b1"/></pattern><clipPath id="clip-path"><path class="cls-1" d="M0 0h1920v720H0z"/></clipPath><style>.cls-1,.cls-26{fill:none}.cls-3{fill:#cb208e}.cls-17{fill:url(#New_Pattern_11)}.cls-26{stroke:#9d9fc6;stroke-miterlimit:10;stroke-width:3px}</style></defs><g style="isolation:isolate"><g id="Layer_1" data-name="Layer 1"><path d="M0 0h1920v720H0z"/><g clip-path="url(#clip-path)" opacity=".2"><rect x="135.25" y="406.76" width="66.53" height="660" rx="33.26" transform="rotate(45 168.51 736.77)" style="mix-blend-mode:screen" fill="url(#linear-gradient)"/><rect x="1236.45" y="-117.21" width="10.75" height="660" rx="5.37" transform="rotate(45 1241.829 212.792)" style="mix-blend-mode:screen" fill="url(#linear-gradient-2)"/><rect x="884.49" y="468.19" width="10.75" height="660" rx="5.37" transform="rotate(45 889.858 798.191)" style="mix-blend-mode:screen" fill="url(#linear-gradient-3)"/><rect x="1690.87" y="624.87" width="10.75" height="660" rx="5.37" transform="rotate(45 1696.241 954.866)" style="mix-blend-mode:screen" fill="url(#linear-gradient-4)"/><rect x="1690.87" y="-392.66" width="10.75" height="660" rx="5.37" transform="rotate(-135 1696.248 -62.655)" style="mix-blend-mode:screen" fill="url(#linear-gradient-5)"/><rect x="724.61" y="-184.53" width="10.75" height="660" rx="5.37" transform="rotate(-135 729.987 145.475)" style="mix-blend-mode:screen" fill="url(#linear-gradient-6)"/><rect x="1912.93" y="213.31" width="10.75" height="660" rx="5.37" transform="rotate(-135 1918.3 543.315)" style="mix-blend-mode:screen" fill="url(#linear-gradient-7)"/><rect x="437.37" y="-453.29" width="10.75" height="660" rx="5.37" transform="rotate(-135 442.746 -123.284)" style="mix-blend-mode:screen" fill="url(#linear-gradient-8)"/><path d="M841.08 1309.18a52.27 52.27 0 010-73.92l659.43-659.43a52.27 52.27 0 0173.92 0 52.27 52.27 0 010 73.92L915 1309.18a52.27 52.27 0 01-73.92 0z" fill="url(#New_Pattern_12)"/><path d="M1646.25 180.83a52.27 52.27 0 010-73.92l659.43-659.43a52.27 52.27 0 0173.92 0 52.27 52.27 0 010 73.92l-659.42 659.43a52.29 52.29 0 01-73.93 0z" fill="url(#New_Pattern_12-3)"/><path class="cls-17" d="M667.23 371.55a52.27 52.27 0 010-73.92l659.43-659.43a52.27 52.27 0 0173.92 0 52.26 52.26 0 010 73.92L741.16 371.55a52.29 52.29 0 01-73.93 0z"/><path class="cls-17" d="M667.23 371.55a52.27 52.27 0 010-73.92l659.43-659.43a52.27 52.27 0 0173.92 0 52.26 52.26 0 010 73.92L741.16 371.55a52.29 52.29 0 01-73.93 0z"/><rect x="-143.52" y="-261.56" width="104.54" height="1037.11" rx="52.27" transform="rotate(45 -91.254 257.002)" style="mix-blend-mode:screen" fill="url(#linear-gradient-9)"/><rect x="238.47" y="423.95" width="104.54" height="1037.11" rx="52.27" transform="rotate(45 290.74 942.509)" style="mix-blend-mode:screen" fill="url(#linear-gradient-10)"/><rect x="824.48" y="470.44" width="104.54" height="1037.11" rx="52.27" transform="rotate(45 876.755 988.994)" style="mix-blend-mode:screen" fill="url(#linear-gradient-11)"/><path d="M1688 628.91a45.11 45.11 0 01-31.89-77L2171 37a45.11 45.11 0 0163.79 63.79L1719.9 615.7a44.82 44.82 0 01-31.9 13.21zm514.87-596.48a36.4 36.4 0 00-25.82 10.68L1662.18 558a36.52 36.52 0 0051.65 51.64l514.86-514.89a36.5 36.5 0 000-51.64 36.4 36.4 0 00-25.82-10.68z" fill="url(#linear-gradient-12)"/><rect x="425.95" y="432.19" width="81.62" height="809.76" rx="40.81" transform="rotate(45 466.764 837.07)" style="mix-blend-mode:screen" fill="url(#linear-gradient-13)"/><rect x="2060.67" y="-450.71" width="104.54" height="1037.11" rx="52.27" transform="rotate(-135 2112.937 67.839)" style="mix-blend-mode:screen" fill="url(#linear-gradient-14)"/><rect x="1960.66" y="-787.56" width="104.54" height="1037.11" rx="52.27" transform="rotate(-135 2012.925 -269)" style="mix-blend-mode:screen" fill="url(#linear-gradient-15)"/><path class="cls-26" d="M-.09 420.39l-460.09 413.27M9.3 430.85l-460.09 413.26M18.69 441.3L-441.4 854.56M28.08 451.76l-460.09 413.26M37.47 462.21l-460.09 413.26M46.86 472.66l-460.09 413.27M56.25 483.12l-460.09 413.26M65.64 493.57l-460.09 413.27M75.03 504.03l-460.09 413.26M84.42 514.48l-460.09 413.27M93.81 524.94L-366.28 938.2M103.2 535.39l-460.08 413.26M112.59 545.85l-460.08 413.26M121.98 556.3L-338.1 969.56M131.37 566.75l-460.08 413.27M140.76 577.21l-460.08 413.26M150.15 587.66l-460.08 413.27M159.54 598.12l-460.08 413.26M168.93 608.57l-460.08 413.26M178.33 619.03l-460.09 413.26M187.72 629.48l-460.09 413.26M197.11 639.94l-460.09 413.26M206.5 650.39l-460.09 413.26M215.89 660.84l-460.09 413.27M225.28 671.3l-460.09 413.26M234.67 681.75l-460.09 413.27M244.06 692.21l-460.09 413.26M253.45 702.66l-460.09 413.26M262.84 713.12l-460.09 413.26"/></g></g></g></svg>